<?xml version="1.0" encoding="UTF-8"?>
<svg width="31" height="29" xmlns="http://www.w3.org/2000/svg">
<!--Generator: Sketch 54.1 (76490) - https://sketchapp.com-->
  <path d="M20.2005161 9.62613333l4.516 4.66679997c.3779355.3905334.3779355 1.0237334 0 1.4142l-4.516 4.6665334c-.1889032.1952666-.4365806.2928666-.684258.2928666-.2476775 0-.4953549-.0976-.6843226-.2928666-.3779355-.3905334-.3779355-1.0236667 0-1.4142L21.6959355 16H9.83883871c-.53445161 0-.96774194-.4477333-.96774194-1s.43329033-1 .96774194-1H21.6960645l-2.864129-2.9597333c-.3779355-.3905334-.377871-1.0236667 0-1.41420003.3779355-.39046667.9907742-.3904 1.3685806.00006666zM14.3548387 26H5.96774194C5.43329032 26 5 25.5522667 5 25V5c0-.55226667.43329032-1 .96774194-1h8.38709676c.5344516 0 .9677419.44773333.9677419 1 0 .55226667-.4332903 1-.9677419 1H6.93548387v18h7.41935483c.5344516 0 .9677419.4477333.9677419 1s-.4332903 1-.9677419 1z" fill="#A9AFBB" fill-rule="nonzero"/>
</svg>
