<?xml version="1.0" encoding="UTF-8"?>
<svg width="18px" height="17px" viewBox="0 0 18 17" version="1.1" xmlns="http://www.w3.org/2000/svg" xmlns:xlink="http://www.w3.org/1999/xlink">
    <!-- Generator: Sketch 54.1 (76490) - https://sketchapp.com -->
    <title>ic_search</title>
    <desc>Created with Sketch.</desc>
    <g id="all-copy" stroke="none" stroke-width="1" fill="none" fill-rule="evenodd">
        <g id="-assignments-output" transform="translate(-44.000000, -124.000000)" fill="#00A5D9" fill-rule="nonzero">
            <g id="Group">
                <g id="from" transform="translate(23.000000, 102.000000)">
                    <path d="M37.633251,36.1995939 L33.384709,31.9639269 C33.0702547,31.6503752 32.6600866,31.4906935 32.2478971,31.484085 C33.8417467,29.1166052 33.5905688,25.8723523 31.4936109,23.7817262 C29.1107343,21.4060913 25.2336235,21.4060913 22.8507939,23.7817262 C20.4679172,26.157361 20.4679172,30.022812 22.8507939,32.3984469 C24.9477517,34.489073 28.20183,34.7395395 30.5764798,33.1504555 C30.5831554,33.5613536 30.7432737,33.9702832 31.0577751,34.2838349 L35.30627,38.5195487 C35.9488589,39.1601504 36.9906152,39.1601504 37.633204,38.5195487 C38.2757928,37.8788533 38.2757928,36.8401956 37.633251,36.1995939 Z M30.1639612,31.0727651 C28.5143099,32.7174354 25.8301419,32.7174354 24.1804906,31.0727651 C22.5308393,29.4280948 22.5308393,26.7520314 24.1804906,25.1073611 C25.8301419,23.4626908 28.5143099,23.4626908 30.1639612,25.1073611 C31.8136126,26.7519845 31.8136126,29.4280948 30.1639612,31.0727651 Z" id="ic_search"></path>
                </g>
            </g>
        </g>
    </g>
</svg>