<?xml version="1.0" encoding="UTF-8"?>
<svg width="1409px" height="5px" viewBox="0 0 1409 5" version="1.1" xmlns="http://www.w3.org/2000/svg" xmlns:xlink="http://www.w3.org/1999/xlink">
    <!-- Generator: Sketch 54.1 (76490) - https://sketchapp.com -->
    <title>strap color</title>
    <desc>Created with Sketch.</desc>
    <g id="all-copy" stroke="none" stroke-width="1" fill="none" fill-rule="evenodd">
        <g id="web-0.1---create-plan-(reading)">
            <g id="strap-color" transform="translate(704.500000, 2.500000) scale(1, -1) translate(-704.500000, -2.500000) ">
                <polygon id="Fill-1" fill="#8560A8" points="1206 5 1409 5 1409 0 1206 0"></polygon>
                <polygon id="Fill-2" fill="#EF5761" points="1004 5 1206 5 1206 0 1004 0"></polygon>
                <polygon id="Fill-3" fill="#34A2D3" points="201 5 403 5 403 0 201 0"></polygon>
                <polygon id="Fill-4" fill="#1169A2" points="0 5 202 5 202 0 0 0"></polygon>
                <polygon id="Fill-5" fill="#F69151" points="804 5 1006 5 1006 0 804 0"></polygon>
                <polygon id="Fill-6" fill="#A0CD58" points="402 5 604 5 604 0 402 0"></polygon>
                <polygon id="Fill-7" fill="#FDE343" points="605 5 804 5 804 0 605 0"></polygon>
            </g>
        </g>
    </g>
</svg>